<svg xmlns="http://www.w3.org/2000/svg" xmlns:xlink="http://www.w3.org/1999/xlink" width="200" zoomAndPan="magnify" viewBox="0 0 150 149.999998" height="200" preserveAspectRatio="xMidYMid meet" version="1.0"><defs><clipPath id="3009f33d3b"><path d="M 11.898438 19.042969 L 133.398438 19.042969 L 133.398438 144.292969 L 11.898438 144.292969 Z M 11.898438 19.042969 " clip-rule="nonzero"/></clipPath><clipPath id="8483d5fdb7"><path d="M 6.847656 5.695312 L 24.847656 5.695312 L 24.847656 44.695312 L 6.847656 44.695312 Z M 6.847656 5.695312 " clip-rule="nonzero"/></clipPath><clipPath id="25c6db4b10"><path d="M 127.003906 5.695312 L 142.863281 5.695312 L 142.863281 43.945312 L 127.003906 43.945312 Z M 127.003906 5.695312 " clip-rule="nonzero"/></clipPath></defs><g clip-path="url(#3009f33d3b)"><path fill="#ff5a5f" d="M -77.675781 112.785156 C -77.675781 108.277344 -74.046875 104.644531 -69.542969 104.644531 C -65.039062 104.644531 -61.410156 108.277344 -61.410156 112.785156 C -61.410156 117.292969 -64.910156 120.925781 -69.542969 120.925781 C -74.171875 120.800781 -77.675781 117.167969 -77.675781 112.785156 Z M -44.144531 96.382812 C -44.144531 95.628906 -44.144531 94.378906 -44.144531 94.378906 C -44.144531 94.378906 -40.265625 99.386719 -32.007812 99.386719 C -18.367188 99.386719 -7.734375 88.992188 -7.734375 74.59375 C -7.734375 60.320312 -18.242188 49.800781 -32.007812 49.800781 C -40.390625 49.800781 -44.144531 54.933594 -44.144531 54.933594 L -44.144531 52.804688 C -44.144531 51.804688 -44.894531 51.054688 -45.894531 51.054688 L -56.027344 51.054688 L -56.027344 98.136719 C -56.027344 98.136719 -46.769531 98.136719 -45.894531 98.136719 C -44.894531 98.136719 -44.144531 97.257812 -44.144531 96.382812 Z M -44.144531 66.203125 C -42.265625 63.449219 -38.511719 61.070312 -34.007812 61.070312 C -26 61.070312 -19.871094 66.078125 -19.871094 74.59375 C -19.871094 83.109375 -26 88.117188 -34.007812 88.117188 C -38.386719 88.117188 -42.390625 85.613281 -44.144531 82.984375 Z M -63.535156 98.136719 L -75.546875 98.136719 L -75.546875 51.054688 L -63.535156 51.054688 Z M -242.953125 99.386719 C -234.695312 99.386719 -230.816406 94.378906 -230.816406 94.378906 L -230.816406 120.800781 L -218.804688 120.800781 L -218.804688 51.050781 C -218.804688 51.050781 -228.066406 51.050781 -228.941406 51.050781 C -229.941406 51.050781 -230.691406 51.929688 -230.691406 52.804688 L -230.691406 54.933594 C -230.691406 54.933594 -234.570312 49.800781 -242.828125 49.800781 C -256.464844 49.800781 -267.101562 60.320312 -267.101562 74.59375 C -267.101562 88.867188 -256.464844 99.386719 -242.953125 99.386719 Z M -240.953125 61.195312 C -236.324219 61.195312 -232.695312 63.574219 -230.816406 66.328125 L -230.816406 83.109375 C -232.695312 85.613281 -236.699219 88.242188 -240.953125 88.242188 C -248.960938 88.242188 -255.089844 83.234375 -255.089844 74.71875 C -255.089844 66.203125 -248.960938 61.195312 -240.953125 61.195312 Z M -212.550781 78.976562 L -212.550781 50.925781 L -200.539062 50.925781 L -200.539062 77.597656 C -200.539062 85.363281 -198.035156 88.492188 -191.28125 88.492188 C -187.652344 88.492188 -183.898438 86.613281 -181.519531 83.859375 L -181.519531 51.050781 L -169.511719 51.050781 L -169.511719 98.136719 L -179.019531 98.136719 C -180.019531 98.136719 -180.769531 97.257812 -180.769531 96.382812 L -180.769531 94.378906 C -184.273438 98.011719 -188.902344 99.386719 -193.53125 99.386719 C -198.789062 99.386719 -203.167969 97.882812 -206.667969 94.878906 C -210.921875 91.375 -212.550781 86.867188 -212.550781 78.976562 Z M -140.359375 99.386719 C -132.101562 99.386719 -128.222656 94.378906 -128.222656 94.378906 L -128.222656 120.800781 L -116.210938 120.800781 L -116.210938 51.050781 C -116.210938 51.050781 -125.46875 51.050781 -126.34375 51.050781 C -127.34375 51.050781 -128.097656 51.929688 -128.097656 52.804688 L -128.097656 54.933594 C -128.097656 54.933594 -131.976562 49.800781 -140.234375 49.800781 C -153.871094 49.800781 -164.503906 60.320312 -164.503906 74.59375 C -164.628906 88.867188 -153.996094 99.386719 -140.359375 99.386719 Z M -138.355469 61.195312 C -133.726562 61.195312 -130.097656 63.574219 -128.222656 66.328125 L -128.222656 83.109375 C -130.097656 85.613281 -134.101562 88.242188 -138.355469 88.242188 C -146.363281 88.242188 -152.492188 83.234375 -152.492188 74.71875 C -152.492188 66.203125 -146.363281 61.195312 -138.355469 61.195312 Z M -105.824219 99.386719 C -109.453125 99.386719 -111.332031 98.761719 -111.332031 98.761719 L -111.332031 87.617188 C -111.332031 87.617188 -101.320312 90.996094 -95.066406 83.859375 L -95.066406 50.925781 L -83.054688 50.925781 L -83.054688 98.136719 C -83.054688 98.136719 -92.3125 98.136719 -93.1875 98.136719 C -94.191406 98.136719 -94.941406 97.257812 -94.941406 96.382812 L -94.941406 94.378906 C -97.191406 97.007812 -102.070312 99.386719 -105.824219 99.386719 Z M 18.917969 55.308594 C 19.542969 56.8125 20.167969 58.441406 20.792969 59.816406 C 21.792969 62.070312 22.796875 64.199219 23.671875 66.203125 L 23.796875 66.328125 C 32.429688 85.113281 41.6875 104.144531 51.445312 122.929688 L 51.820312 123.679688 C 52.824219 125.558594 53.824219 127.5625 54.824219 129.566406 C 56.078125 131.820312 57.328125 134.199219 59.328125 136.453125 C 63.332031 141.460938 69.089844 144.214844 75.21875 144.214844 C 81.476562 144.214844 87.105469 141.460938 91.234375 136.703125 C 93.109375 134.449219 94.488281 132.070312 95.738281 129.816406 C 96.738281 127.8125 97.738281 125.808594 98.742188 123.929688 L 99.117188 123.179688 C 108.75 104.394531 118.132812 85.363281 126.765625 66.578125 L 126.890625 66.328125 C 127.769531 64.324219 128.769531 62.195312 129.769531 59.941406 C 130.394531 58.566406 131.019531 57.0625 131.648438 55.433594 C 133.273438 50.800781 133.773438 46.417969 133.148438 41.910156 C 131.773438 32.519531 125.515625 24.632812 116.882812 21.125 C 113.628906 19.746094 110.25 19.121094 106.75 19.121094 C 105.746094 19.121094 104.496094 19.246094 103.496094 19.371094 C 99.367188 19.875 95.113281 21.25 90.984375 23.628906 C 85.855469 26.511719 80.972656 30.640625 75.46875 36.652344 C 69.964844 30.640625 64.960938 26.511719 59.953125 23.628906 C 55.824219 21.25 51.570312 19.875 47.441406 19.371094 C 46.441406 19.246094 45.191406 19.121094 44.191406 19.121094 C 40.6875 19.121094 37.183594 19.746094 34.054688 21.125 C 25.296875 24.632812 19.167969 32.644531 17.789062 41.910156 C 16.789062 46.292969 17.289062 50.675781 18.917969 55.308594 Z M 75.34375 48.796875 C 82.101562 57.3125 86.480469 65.328125 87.980469 72.089844 C 88.605469 74.96875 88.730469 77.472656 88.355469 79.726562 C 88.105469 81.730469 87.355469 83.484375 86.355469 84.988281 C 83.976562 88.367188 79.972656 90.496094 75.34375 90.496094 C 70.714844 90.496094 66.585938 88.492188 64.332031 84.988281 C 63.332031 83.484375 62.582031 81.730469 62.332031 79.726562 C 61.957031 77.472656 62.082031 74.84375 62.707031 72.089844 C 64.207031 65.453125 68.589844 57.4375 75.34375 48.796875 Z M 25.421875 42.914062 C 26.296875 36.402344 30.675781 30.765625 36.808594 28.261719 C 39.8125 27.011719 43.0625 26.636719 46.316406 27.011719 C 49.445312 27.386719 52.574219 28.386719 55.824219 30.265625 C 60.332031 32.769531 64.835938 36.652344 70.089844 42.414062 C 61.832031 52.554688 56.828125 61.820312 54.949219 70.085938 C 54.074219 73.96875 53.949219 77.472656 54.324219 80.730469 C 54.824219 83.859375 55.949219 86.738281 57.703125 89.246094 C 61.582031 94.878906 68.085938 98.136719 75.34375 98.136719 C 82.601562 98.136719 89.105469 94.753906 92.984375 89.246094 C 94.738281 86.738281 95.863281 83.859375 96.363281 80.730469 C 96.863281 77.472656 96.738281 73.84375 95.738281 70.085938 C 93.863281 61.820312 88.730469 52.429688 80.597656 42.289062 C 85.730469 36.527344 90.359375 32.644531 94.863281 30.140625 C 98.117188 28.261719 101.242188 27.261719 104.371094 26.886719 C 107.75 26.511719 111.003906 27.011719 113.878906 28.136719 C 120.011719 30.640625 124.390625 36.277344 125.265625 42.789062 C 125.640625 45.917969 125.390625 49.050781 124.140625 52.554688 C 123.765625 53.808594 123.140625 55.058594 122.511719 56.5625 C 121.636719 58.566406 120.636719 60.695312 119.636719 62.824219 L 119.511719 63.074219 C 110.878906 81.730469 101.617188 100.765625 91.984375 119.296875 L 91.609375 120.046875 C 90.609375 121.925781 89.609375 123.929688 88.605469 125.808594 C 87.605469 127.8125 86.480469 129.691406 85.101562 131.316406 C 82.476562 134.324219 78.972656 135.949219 75.09375 135.949219 C 71.214844 135.949219 67.710938 134.324219 65.085938 131.316406 C 63.707031 129.691406 62.582031 127.8125 61.582031 125.808594 C 60.582031 123.929688 59.578125 121.925781 58.578125 120.046875 L 58.203125 119.296875 C 48.695312 100.640625 39.4375 81.605469 30.800781 62.949219 L 30.800781 62.824219 C 29.800781 60.820312 28.925781 58.566406 27.925781 56.5625 C 27.300781 55.058594 26.671875 53.808594 26.296875 52.554688 C 25.296875 49.300781 24.921875 46.167969 25.421875 42.914062 Z M 25.421875 42.914062 " fill-opacity="1" fill-rule="nonzero"/></g><g clip-path="url(#8483d5fdb7)"><path fill="#ff5a60" d="M 18.648438 44.585938 C 14.558594 45.085938 5.839844 34.472656 6.941406 23.441406 C 8.046875 12.410156 17.054688 6.707031 19.507812 5.726562 C 14.910156 13.449219 15.09375 19.394531 18.464844 25.402344 C 21.835938 31.40625 28.882812 31.40625 27.964844 36.496094 C 27.046875 41.582031 23.183594 44.03125 18.648438 44.585938 Z M 18.648438 44.585938 " fill-opacity="1" fill-rule="nonzero"/></g><g clip-path="url(#25c6db4b10)"><path fill="#ff5a60" d="M 131.34375 44.585938 C 135.429688 45.085938 144.152344 34.472656 143.050781 23.441406 C 141.945312 12.410156 132.9375 6.707031 130.484375 5.726562 C 135.082031 13.449219 134.898438 19.394531 131.527344 25.402344 C 128.15625 31.40625 121.109375 31.40625 122.027344 36.496094 C 122.945312 41.582031 126.808594 44.03125 131.34375 44.585938 Z M 131.34375 44.585938 " fill-opacity="1" fill-rule="nonzero"/></g></svg>