<svg xmlns="http://www.w3.org/2000/svg" xmlns:xlink="http://www.w3.org/1999/xlink" width="2000" zoomAndPan="magnify" viewBox="0 0 1500 675.000002" height="900" preserveAspectRatio="xMidYMid meet" version="1.0"><defs><clipPath id="28cbc42a7a"><path d="M 68.242188 103 L 522.066406 103 L 522.066406 571 L 68.242188 571 Z M 68.242188 103 " clip-rule="nonzero"/></clipPath><clipPath id="de80e1822c"><path d="M 855.089844 103 L 1431.492188 103 L 1431.492188 571 L 855.089844 571 Z M 855.089844 103 " clip-rule="nonzero"/></clipPath><clipPath id="49ac21f691"><path d="M 541.308594 103 L 664.125 103 L 664.125 571 L 541.308594 571 Z M 541.308594 103 " clip-rule="nonzero"/></clipPath><clipPath id="2bfa643ce6"><path d="M 658.726562 103 L 866.917969 103 L 866.917969 571 L 658.726562 571 Z M 658.726562 103 " clip-rule="nonzero"/></clipPath><clipPath id="dcbb6c7631"><path d="M 49.195312 53.148438 L 116.59375 53.148438 L 116.59375 198.429688 L 49.195312 198.429688 Z M 49.195312 53.148438 " clip-rule="nonzero"/></clipPath><clipPath id="4657655afc"><path d="M 498.144531 53.148438 L 558.78125 53.148438 L 558.78125 196.933594 L 498.144531 196.933594 Z M 498.144531 53.148438 " clip-rule="nonzero"/></clipPath></defs><g clip-path="url(#28cbc42a7a)"><path fill="#ff5a5f" d="M -267.296875 453.277344 C -267.296875 436.433594 -253.726562 422.863281 -236.882812 422.863281 C -220.039062 422.863281 -206.46875 436.433594 -206.46875 453.277344 C -206.46875 470.121094 -219.570312 483.691406 -236.882812 483.691406 C -254.195312 483.222656 -267.296875 469.652344 -267.296875 453.277344 Z M -141.898438 391.980469 C -141.898438 389.171875 -141.898438 384.492188 -141.898438 384.492188 C -141.898438 384.492188 -127.390625 403.210938 -96.507812 403.210938 C -45.507812 403.210938 -5.734375 364.375 -5.734375 310.5625 C -5.734375 257.222656 -45.039062 217.917969 -96.507812 217.917969 C -127.859375 217.917969 -141.898438 237.101562 -141.898438 237.101562 L -141.898438 229.148438 C -141.898438 225.402344 -144.703125 222.597656 -148.449219 222.597656 L -186.347656 222.597656 L -186.347656 398.53125 C -186.347656 398.53125 -151.722656 398.53125 -148.449219 398.53125 C -144.703125 398.53125 -141.898438 395.253906 -141.898438 391.980469 Z M -141.898438 279.214844 C -134.878906 268.917969 -120.839844 260.03125 -103.996094 260.03125 C -74.050781 260.03125 -51.121094 278.746094 -51.121094 310.5625 C -51.121094 342.382812 -74.050781 361.097656 -103.996094 361.097656 C -120.371094 361.097656 -135.347656 351.738281 -141.898438 341.914062 Z M -214.421875 398.53125 L -259.34375 398.53125 L -259.34375 222.597656 L -214.421875 222.597656 Z M -885.40625 403.210938 C -854.523438 403.210938 -840.019531 384.492188 -840.019531 384.492188 L -840.019531 483.222656 L -795.097656 483.222656 L -795.097656 222.597656 C -795.097656 222.597656 -829.726562 222.597656 -833 222.597656 C -836.742188 222.597656 -839.550781 225.871094 -839.550781 229.148438 L -839.550781 237.101562 C -839.550781 237.101562 -854.054688 217.917969 -884.9375 217.917969 C -935.941406 217.917969 -975.710938 257.222656 -975.710938 310.5625 C -975.710938 363.90625 -935.941406 403.210938 -885.40625 403.210938 Z M -877.917969 260.496094 C -860.605469 260.496094 -847.039062 269.386719 -840.019531 279.683594 L -840.019531 342.382812 C -847.039062 351.738281 -862.011719 361.566406 -877.917969 361.566406 C -907.867188 361.566406 -930.792969 342.851562 -930.792969 311.03125 C -930.792969 279.214844 -907.867188 260.496094 -877.917969 260.496094 Z M -771.703125 326.941406 L -771.703125 222.128906 L -726.785156 222.128906 L -726.785156 321.792969 C -726.785156 350.804688 -717.425781 362.5 -692.160156 362.5 C -678.589844 362.5 -664.550781 355.484375 -655.664062 345.1875 L -655.664062 222.597656 L -610.742188 222.597656 L -610.742188 398.53125 L -646.304688 398.53125 C -650.046875 398.53125 -652.855469 395.253906 -652.855469 391.980469 L -652.855469 384.492188 C -665.957031 398.0625 -683.269531 403.210938 -700.582031 403.210938 C -720.234375 403.210938 -736.609375 397.59375 -749.710938 386.367188 C -765.621094 373.265625 -771.703125 356.417969 -771.703125 326.941406 Z M -501.71875 403.210938 C -470.835938 403.210938 -456.332031 384.492188 -456.332031 384.492188 L -456.332031 483.222656 L -411.414062 483.222656 L -411.414062 222.597656 C -411.414062 222.597656 -446.039062 222.597656 -449.3125 222.597656 C -453.058594 222.597656 -455.863281 225.871094 -455.863281 229.148438 L -455.863281 237.101562 C -455.863281 237.101562 -470.371094 217.917969 -501.25 217.917969 C -552.253906 217.917969 -592.027344 257.222656 -592.027344 310.5625 C -592.496094 363.90625 -552.722656 403.210938 -501.71875 403.210938 Z M -494.234375 260.496094 C -476.921875 260.496094 -463.351562 269.386719 -456.332031 279.683594 L -456.332031 342.382812 C -463.351562 351.738281 -478.324219 361.566406 -494.234375 361.566406 C -524.179688 361.566406 -547.105469 342.851562 -547.105469 311.03125 C -547.105469 279.214844 -524.179688 260.496094 -494.234375 260.496094 Z M -372.578125 403.210938 C -386.144531 403.210938 -393.164062 400.871094 -393.164062 400.871094 L -393.164062 359.226562 C -393.164062 359.226562 -355.730469 371.859375 -332.335938 345.1875 L -332.335938 222.128906 L -287.417969 222.128906 L -287.417969 398.53125 C -287.417969 398.53125 -322.042969 398.53125 -325.316406 398.53125 C -329.0625 398.53125 -331.867188 395.253906 -331.867188 391.980469 L -331.867188 384.492188 C -340.289062 394.320312 -358.539062 403.210938 -372.578125 403.210938 Z M 93.929688 238.503906 C 96.269531 244.121094 98.609375 250.203125 100.949219 255.351562 C 104.691406 263.773438 108.433594 271.726562 111.710938 279.214844 L 112.179688 279.683594 C 144.464844 349.867188 179.089844 420.992188 215.585938 491.175781 L 216.992188 493.984375 C 220.734375 501.003906 224.476562 508.488281 228.21875 515.976562 C 232.898438 524.398438 237.578125 533.289062 245.066406 541.710938 C 260.039062 560.429688 281.5625 570.722656 304.488281 570.722656 C 327.886719 570.722656 348.941406 560.429688 364.382812 542.648438 C 371.402344 534.226562 376.546875 525.335938 381.226562 516.914062 C 384.96875 509.425781 388.714844 501.9375 392.457031 494.921875 L 393.859375 492.113281 C 429.890625 421.925781 464.984375 350.804688 497.269531 280.617188 L 497.738281 279.683594 C 501.011719 272.195312 504.753906 264.242188 508.5 255.816406 C 510.839844 250.671875 513.179688 245.054688 515.515625 238.972656 C 521.601562 221.660156 523.472656 205.285156 521.132812 188.4375 C 515.984375 153.347656 492.589844 123.867188 460.304688 110.765625 C 448.136719 105.617188 435.503906 103.28125 422.402344 103.28125 C 418.660156 103.28125 413.980469 103.746094 410.238281 104.214844 C 394.796875 106.085938 378.886719 111.234375 363.445312 120.125 C 344.261719 130.886719 326.015625 146.328125 305.425781 168.785156 C 284.835938 146.328125 266.121094 130.886719 247.40625 120.125 C 231.964844 111.234375 216.054688 106.085938 200.613281 104.214844 C 196.871094 103.746094 192.191406 103.28125 188.449219 103.28125 C 175.347656 103.28125 162.246094 105.617188 150.546875 110.765625 C 117.792969 123.867188 94.867188 153.8125 89.71875 188.4375 C 85.976562 204.816406 87.847656 221.191406 93.929688 238.503906 Z M 304.957031 214.175781 C 330.226562 245.992188 346.601562 275.9375 352.214844 301.207031 C 354.554688 311.96875 355.023438 321.324219 353.621094 329.75 C 352.683594 337.234375 349.878906 343.785156 346.132812 349.402344 C 337.242188 362.035156 322.269531 369.988281 304.957031 369.988281 C 287.644531 369.988281 272.203125 362.5 263.78125 349.402344 C 260.039062 343.785156 257.230469 337.234375 256.296875 329.75 C 254.890625 321.324219 255.359375 311.5 257.699219 301.207031 C 263.3125 276.40625 279.691406 246.460938 304.957031 214.175781 Z M 118.261719 192.183594 C 121.535156 167.851562 137.914062 146.796875 160.839844 137.4375 C 172.070312 132.757812 184.238281 131.355469 196.402344 132.757812 C 208.101562 134.160156 219.796875 137.90625 231.964844 144.921875 C 248.808594 154.28125 265.652344 168.785156 285.304688 190.3125 C 254.421875 228.210938 235.707031 262.835938 228.6875 293.71875 C 225.414062 308.222656 224.945312 321.324219 226.347656 333.492188 C 228.21875 345.1875 232.429688 355.949219 238.980469 365.308594 C 253.488281 386.367188 277.820312 398.53125 304.957031 398.53125 C 332.097656 398.53125 356.429688 385.898438 370.933594 365.308594 C 377.484375 355.949219 381.695312 345.1875 383.566406 333.492188 C 385.4375 321.324219 384.96875 307.757812 381.226562 293.71875 C 374.207031 262.835938 355.023438 227.742188 324.609375 189.84375 C 343.792969 168.320312 361.105469 153.8125 377.953125 144.457031 C 390.117188 137.4375 401.816406 133.695312 413.511719 132.289062 C 426.148438 130.886719 438.3125 132.757812 449.074219 136.96875 C 472 146.328125 488.378906 167.382812 491.652344 191.714844 C 493.058594 203.414062 492.121094 215.109375 487.441406 228.210938 C 486.039062 232.890625 483.699219 237.570312 481.359375 243.183594 C 478.085938 250.671875 474.339844 258.625 470.597656 266.582031 L 470.128906 267.515625 C 437.84375 337.234375 403.21875 408.355469 367.191406 477.609375 L 365.785156 480.414062 C 362.042969 487.433594 358.300781 494.921875 354.554688 501.9375 C 350.8125 509.425781 346.601562 516.445312 341.453125 522.527344 C 331.628906 533.757812 318.527344 539.839844 304.023438 539.839844 C 289.515625 539.839844 276.414062 533.757812 266.589844 522.527344 C 261.441406 516.445312 257.230469 509.425781 253.488281 501.9375 C 249.746094 494.921875 246 487.433594 242.257812 480.414062 L 240.855469 477.609375 C 205.292969 407.890625 170.667969 336.765625 138.382812 267.046875 L 138.382812 266.582031 C 134.636719 259.09375 131.363281 250.671875 127.621094 243.183594 C 125.28125 237.570312 122.941406 232.890625 121.535156 228.210938 C 117.792969 216.046875 116.390625 204.347656 118.261719 192.183594 Z M 118.261719 192.183594 " fill-opacity="1" fill-rule="nonzero"/></g><g clip-path="url(#de80e1822c)"><path fill="#ff5a5f" d="M 723.074219 220.726562 C 723.074219 237.570312 709.503906 251.140625 692.660156 251.140625 C 675.816406 251.140625 662.246094 237.570312 662.246094 220.726562 C 662.246094 203.878906 675.347656 190.3125 692.660156 190.3125 C 709.972656 190.777344 723.074219 204.347656 723.074219 220.726562 Z M 597.675781 282.019531 C 597.675781 284.828125 597.675781 289.507812 597.675781 289.507812 C 597.675781 289.507812 583.167969 270.792969 552.285156 270.792969 C 501.285156 270.792969 461.511719 309.628906 461.511719 363.4375 C 461.511719 416.78125 500.816406 456.082031 552.285156 456.082031 C 583.636719 456.082031 597.675781 436.898438 597.675781 436.898438 L 597.675781 444.855469 C 597.675781 448.597656 600.480469 451.40625 604.226562 451.40625 L 642.125 451.40625 L 642.125 275.46875 C 642.125 275.46875 607.5 275.46875 604.226562 275.46875 C 600.480469 275.46875 597.675781 278.746094 597.675781 282.019531 Z M 597.675781 394.789062 C 590.65625 405.082031 576.617188 413.972656 559.773438 413.972656 C 529.828125 413.972656 506.898438 395.253906 506.898438 363.4375 C 506.898438 331.621094 529.828125 312.902344 559.773438 312.902344 C 576.148438 312.902344 591.125 322.261719 597.675781 332.085938 Z M 670.199219 275.46875 L 715.121094 275.46875 L 715.121094 451.40625 L 670.199219 451.40625 Z M 1341.183594 270.792969 C 1310.300781 270.792969 1295.796875 289.507812 1295.796875 289.507812 L 1295.796875 190.777344 L 1250.875 190.777344 L 1250.875 451.40625 C 1250.875 451.40625 1285.503906 451.40625 1288.777344 451.40625 C 1292.519531 451.40625 1295.328125 448.128906 1295.328125 444.855469 L 1295.328125 436.898438 C 1295.328125 436.898438 1309.832031 456.082031 1340.714844 456.082031 C 1391.71875 456.082031 1431.488281 416.78125 1431.488281 363.4375 C 1431.492188 310.097656 1391.71875 270.792969 1341.183594 270.792969 Z M 1333.695312 413.503906 C 1316.382812 413.503906 1302.816406 404.613281 1295.796875 394.320312 L 1295.796875 331.621094 C 1302.816406 322.261719 1317.789062 312.433594 1333.695312 312.433594 C 1363.644531 312.433594 1386.570312 331.152344 1386.570312 362.96875 C 1386.570312 394.789062 1363.644531 413.503906 1333.695312 413.503906 Z M 1227.480469 347.0625 L 1227.480469 451.871094 L 1182.5625 451.871094 L 1182.5625 352.207031 C 1182.5625 323.199219 1173.203125 311.5 1147.9375 311.5 C 1134.367188 311.5 1120.328125 318.519531 1111.441406 328.8125 L 1111.441406 451.40625 L 1066.519531 451.40625 L 1066.519531 275.46875 L 1102.082031 275.46875 C 1105.824219 275.46875 1108.632812 278.746094 1108.632812 282.019531 L 1108.632812 289.507812 C 1121.734375 275.9375 1139.046875 270.792969 1156.359375 270.792969 C 1176.011719 270.792969 1192.386719 276.40625 1205.488281 287.636719 C 1221.398438 300.738281 1227.480469 317.582031 1227.480469 347.0625 Z M 957.496094 270.792969 C 926.613281 270.792969 912.109375 289.507812 912.109375 289.507812 L 912.109375 190.777344 L 867.191406 190.777344 L 867.191406 451.40625 C 867.191406 451.40625 901.816406 451.40625 905.089844 451.40625 C 908.835938 451.40625 911.640625 448.128906 911.640625 444.855469 L 911.640625 436.898438 C 911.640625 436.898438 926.148438 456.082031 957.027344 456.082031 C 1008.03125 456.082031 1047.804688 416.78125 1047.804688 363.4375 C 1048.273438 310.097656 1008.5 270.792969 957.496094 270.792969 Z M 950.011719 413.503906 C 932.699219 413.503906 919.128906 404.613281 912.109375 394.320312 L 912.109375 331.621094 C 919.128906 322.261719 934.101562 312.433594 950.011719 312.433594 C 979.957031 312.433594 1002.882812 331.152344 1002.882812 362.96875 C 1002.882812 394.789062 979.957031 413.503906 950.011719 413.503906 Z M 828.355469 270.792969 C 841.921875 270.792969 848.941406 273.132812 848.941406 273.132812 L 848.941406 314.773438 C 848.941406 314.773438 811.507812 302.140625 788.113281 328.8125 L 788.113281 451.871094 L 743.195312 451.871094 L 743.195312 275.46875 C 743.195312 275.46875 777.820312 275.46875 781.09375 275.46875 C 784.839844 275.46875 787.644531 278.746094 787.644531 282.019531 L 787.644531 289.507812 C 796.066406 279.683594 814.316406 270.792969 828.355469 270.792969 Z M 361.847656 435.496094 C 359.507812 429.882812 357.167969 423.796875 354.828125 418.652344 C 351.085938 410.230469 347.34375 402.273438 344.066406 394.789062 L 343.597656 394.320312 C 311.3125 324.132812 276.6875 253.011719 240.191406 182.824219 L 238.785156 180.015625 C 235.042969 173 231.300781 165.511719 227.558594 158.023438 C 222.878906 149.601562 218.199219 140.710938 210.710938 132.289062 C 195.738281 113.574219 174.214844 103.28125 151.289062 103.28125 C 127.890625 103.28125 106.835938 113.574219 91.394531 131.355469 C 84.375 139.777344 79.230469 148.667969 74.550781 157.089844 C 70.808594 164.574219 67.0625 172.0625 63.320312 179.082031 L 61.917969 181.886719 C 25.886719 252.074219 -9.207031 323.199219 -41.492188 393.382812 L -41.960938 394.320312 C -45.234375 401.804688 -48.976562 409.761719 -52.722656 418.183594 C -55.0625 423.332031 -57.398438 428.945312 -59.738281 435.027344 C -65.824219 452.339844 -67.695312 468.71875 -65.355469 485.5625 C -60.207031 520.65625 -36.8125 550.132812 -4.527344 563.234375 C 7.640625 568.382812 20.273438 570.722656 33.375 570.722656 C 37.117188 570.722656 41.796875 570.253906 45.539062 569.785156 C 60.980469 567.914062 76.890625 562.765625 92.332031 553.878906 C 111.515625 543.117188 129.765625 527.675781 150.351562 505.214844 C 170.941406 527.675781 189.65625 543.117188 208.371094 553.878906 C 223.8125 562.765625 239.722656 567.914062 255.164062 569.785156 C 258.90625 570.253906 263.585938 570.722656 267.328125 570.722656 C 280.429688 570.722656 293.53125 568.382812 305.230469 563.234375 C 337.984375 550.132812 360.910156 520.1875 366.058594 485.5625 C 369.800781 469.183594 367.929688 452.808594 361.847656 435.496094 Z M 150.820312 459.828125 C 125.550781 428.007812 109.175781 398.0625 103.5625 372.796875 C 101.222656 362.035156 100.753906 352.675781 102.15625 344.253906 C 103.09375 336.765625 105.898438 330.214844 109.644531 324.601562 C 118.535156 311.96875 133.507812 304.011719 150.820312 304.011719 C 168.132812 304.011719 183.574219 311.5 191.996094 324.601562 C 195.738281 330.214844 198.546875 336.765625 199.480469 344.253906 C 200.886719 352.675781 200.417969 362.5 198.078125 372.796875 C 192.464844 397.59375 176.085938 427.542969 150.820312 459.828125 Z M 337.515625 481.820312 C 334.242188 506.148438 317.863281 527.207031 294.9375 536.566406 C 283.707031 541.242188 271.539062 542.648438 259.375 541.242188 C 247.675781 539.839844 235.980469 536.097656 223.8125 529.078125 C 206.96875 519.71875 190.125 505.214844 170.472656 483.691406 C 201.355469 445.789062 220.070312 411.164062 227.089844 380.28125 C 230.363281 365.777344 230.832031 352.675781 229.429688 340.511719 C 227.558594 328.8125 223.347656 318.050781 216.796875 308.691406 C 202.289062 287.636719 177.957031 275.46875 150.820312 275.46875 C 123.679688 275.46875 99.347656 288.105469 84.84375 308.691406 C 78.292969 318.050781 74.082031 328.8125 72.210938 340.511719 C 70.339844 352.675781 70.808594 366.246094 74.550781 380.28125 C 81.570312 411.164062 100.753906 446.257812 131.167969 484.160156 C 111.984375 505.683594 94.671875 520.1875 77.824219 529.546875 C 65.660156 536.566406 53.960938 540.308594 42.265625 541.710938 C 29.632812 543.117188 17.464844 541.242188 6.703125 537.03125 C -16.222656 527.675781 -32.601562 506.617188 -35.875 482.285156 C -37.28125 470.589844 -36.34375 458.890625 -31.664062 445.789062 C -30.261719 441.109375 -27.921875 436.433594 -25.582031 430.816406 C -22.308594 423.332031 -18.5625 415.375 -14.820312 407.421875 L -14.351562 406.484375 C 17.933594 336.765625 52.558594 265.644531 88.585938 196.394531 L 89.992188 193.585938 C 93.734375 186.566406 97.476562 179.082031 101.222656 172.0625 C 104.964844 164.574219 109.175781 157.558594 114.324219 151.472656 C 124.148438 140.246094 137.25 134.160156 151.753906 134.160156 C 166.261719 134.160156 179.363281 140.246094 189.1875 151.472656 C 194.335938 157.558594 198.546875 164.574219 202.289062 172.0625 C 206.03125 179.082031 209.777344 186.566406 213.519531 193.585938 L 214.921875 196.394531 C 250.484375 266.113281 285.109375 337.234375 317.394531 406.953125 L 317.394531 407.421875 C 321.140625 414.90625 324.414062 423.332031 328.15625 430.816406 C 330.496094 436.433594 332.835938 441.109375 334.242188 445.789062 C 337.984375 457.957031 339.386719 469.652344 337.515625 481.820312 Z M 337.515625 481.820312 " fill-opacity="1" fill-rule="nonzero"/></g><g clip-path="url(#49ac21f691)"><path fill="#ff5a5f" d="M 531.953125 220.726562 C 531.953125 237.570312 518.382812 251.140625 501.539062 251.140625 C 484.691406 251.140625 471.121094 237.570312 471.121094 220.726562 C 471.121094 203.878906 484.222656 190.3125 501.539062 190.3125 C 518.851562 190.777344 531.953125 204.347656 531.953125 220.726562 Z M 406.550781 282.019531 C 406.550781 284.828125 406.550781 289.507812 406.550781 289.507812 C 406.550781 289.507812 392.046875 270.792969 361.164062 270.792969 C 310.160156 270.792969 270.390625 309.628906 270.390625 363.4375 C 270.390625 416.78125 309.695312 456.082031 361.164062 456.082031 C 392.515625 456.082031 406.550781 436.898438 406.550781 436.898438 L 406.550781 444.855469 C 406.550781 448.597656 409.359375 451.40625 413.101562 451.40625 L 451.003906 451.40625 L 451.003906 275.46875 C 451.003906 275.46875 416.378906 275.46875 413.101562 275.46875 C 409.359375 275.46875 406.550781 278.746094 406.550781 282.019531 Z M 406.550781 394.789062 C 399.53125 405.082031 385.496094 413.972656 368.652344 413.972656 C 338.703125 413.972656 315.777344 395.253906 315.777344 363.4375 C 315.777344 331.621094 338.703125 312.902344 368.652344 312.902344 C 385.027344 312.902344 400 322.261719 406.550781 332.085938 Z M 479.078125 275.46875 L 523.996094 275.46875 L 523.996094 451.40625 L 479.078125 451.40625 Z M 1150.0625 270.792969 C 1119.179688 270.792969 1104.671875 289.507812 1104.671875 289.507812 L 1104.671875 190.777344 L 1059.753906 190.777344 L 1059.753906 451.40625 C 1059.753906 451.40625 1094.378906 451.40625 1097.65625 451.40625 C 1101.398438 451.40625 1104.207031 448.128906 1104.207031 444.855469 L 1104.207031 436.898438 C 1104.207031 436.898438 1118.710938 456.082031 1149.59375 456.082031 C 1200.59375 456.082031 1240.367188 416.78125 1240.367188 363.4375 C 1240.367188 310.097656 1200.59375 270.792969 1150.0625 270.792969 Z M 1142.574219 413.503906 C 1125.261719 413.503906 1111.691406 404.613281 1104.671875 394.320312 L 1104.671875 331.621094 C 1111.691406 322.261719 1126.664062 312.433594 1142.574219 312.433594 C 1172.519531 312.433594 1195.449219 331.152344 1195.449219 362.96875 C 1195.449219 394.789062 1172.519531 413.503906 1142.574219 413.503906 Z M 1036.359375 347.0625 L 1036.359375 451.871094 L 991.4375 451.871094 L 991.4375 352.207031 C 991.4375 323.199219 982.082031 311.5 956.8125 311.5 C 943.246094 311.5 929.207031 318.519531 920.316406 328.8125 L 920.316406 451.40625 L 875.398438 451.40625 L 875.398438 275.46875 L 910.957031 275.46875 C 914.703125 275.46875 917.507812 278.746094 917.507812 282.019531 L 917.507812 289.507812 C 930.609375 275.9375 947.921875 270.792969 965.234375 270.792969 C 984.886719 270.792969 1001.265625 276.40625 1014.367188 287.636719 C 1030.277344 300.738281 1036.359375 317.582031 1036.359375 347.0625 Z M 766.375 270.792969 C 735.492188 270.792969 720.988281 289.507812 720.988281 289.507812 L 720.988281 190.777344 L 676.066406 190.777344 L 676.066406 451.40625 C 676.066406 451.40625 710.691406 451.40625 713.96875 451.40625 C 717.710938 451.40625 720.519531 448.128906 720.519531 444.855469 L 720.519531 436.898438 C 720.519531 436.898438 735.023438 456.082031 765.90625 456.082031 C 816.910156 456.082031 856.679688 416.78125 856.679688 363.4375 C 857.148438 310.097656 817.375 270.792969 766.375 270.792969 Z M 758.886719 413.503906 C 741.574219 413.503906 728.003906 404.613281 720.988281 394.320312 L 720.988281 331.621094 C 728.003906 322.261719 742.980469 312.433594 758.886719 312.433594 C 788.835938 312.433594 811.761719 331.152344 811.761719 362.96875 C 811.761719 394.789062 788.835938 413.503906 758.886719 413.503906 Z M 637.230469 270.792969 C 650.800781 270.792969 657.820312 273.132812 657.820312 273.132812 L 657.820312 314.773438 C 657.820312 314.773438 620.386719 302.140625 596.992188 328.8125 L 596.992188 451.871094 L 552.070312 451.871094 L 552.070312 275.46875 C 552.070312 275.46875 586.695312 275.46875 589.972656 275.46875 C 593.714844 275.46875 596.523438 278.746094 596.523438 282.019531 L 596.523438 289.507812 C 604.945312 279.683594 623.195312 270.792969 637.230469 270.792969 Z M 170.726562 435.496094 C 168.386719 429.882812 166.046875 423.796875 163.707031 418.652344 C 159.960938 410.230469 156.21875 402.273438 152.945312 394.789062 L 152.476562 394.320312 C 120.191406 324.132812 85.566406 253.011719 49.066406 182.824219 L 47.664062 180.015625 C 43.921875 173 40.175781 165.511719 36.433594 158.023438 C 31.753906 149.601562 27.074219 140.710938 19.589844 132.289062 C 4.617188 113.574219 -16.90625 103.28125 -39.835938 103.28125 C -63.230469 103.28125 -84.285156 113.574219 -99.726562 131.355469 C -106.746094 139.777344 -111.894531 148.667969 -116.574219 157.089844 C -120.316406 164.574219 -124.058594 172.0625 -127.800781 179.082031 L -129.207031 181.886719 C -165.234375 252.074219 -200.328125 323.199219 -232.613281 393.382812 L -233.082031 394.320312 C -236.355469 401.804688 -240.101562 409.761719 -243.84375 418.183594 C -246.183594 423.332031 -248.523438 428.945312 -250.863281 435.027344 C -256.945312 452.339844 -258.816406 468.71875 -256.476562 485.5625 C -251.332031 520.65625 -227.933594 550.132812 -195.648438 563.234375 C -183.484375 568.382812 -170.851562 570.722656 -157.75 570.722656 C -154.003906 570.722656 -149.324219 570.253906 -145.582031 569.785156 C -130.140625 567.914062 -114.234375 562.765625 -98.792969 553.878906 C -79.605469 543.117188 -61.359375 527.675781 -40.769531 505.214844 C -20.183594 527.675781 -1.464844 543.117188 17.25 553.878906 C 32.691406 562.765625 48.601562 567.914062 64.042969 569.785156 C 67.785156 570.253906 72.464844 570.722656 76.207031 570.722656 C 89.308594 570.722656 102.410156 568.382812 114.109375 563.234375 C 146.859375 550.132812 169.789062 520.1875 174.9375 485.5625 C 178.679688 469.183594 176.808594 452.808594 170.726562 435.496094 Z M -40.304688 459.828125 C -65.570312 428.007812 -81.945312 398.0625 -87.5625 372.796875 C -89.902344 362.035156 -90.371094 352.675781 -88.964844 344.253906 C -88.03125 336.765625 -85.222656 330.214844 -81.480469 324.601562 C -72.589844 311.96875 -57.617188 304.011719 -40.304688 304.011719 C -22.992188 304.011719 -7.550781 311.5 0.875 324.601562 C 4.617188 330.214844 7.425781 336.765625 8.359375 344.253906 C 9.761719 352.675781 9.296875 362.5 6.957031 372.796875 C 1.339844 397.59375 -15.035156 427.542969 -40.304688 459.828125 Z M 146.394531 481.820312 C 143.117188 506.148438 126.742188 527.207031 103.8125 536.566406 C 92.582031 541.242188 80.417969 542.648438 68.253906 541.242188 C 56.554688 539.839844 44.855469 536.097656 32.691406 529.078125 C 15.847656 519.71875 -1 505.214844 -20.652344 483.691406 C 10.230469 445.789062 28.949219 411.164062 35.964844 380.28125 C 39.242188 365.777344 39.710938 352.675781 38.304688 340.511719 C 36.433594 328.8125 32.222656 318.050781 25.671875 308.691406 C 11.167969 287.636719 -13.164062 275.46875 -40.304688 275.46875 C -67.441406 275.46875 -91.773438 288.105469 -106.277344 308.691406 C -112.828125 318.050781 -117.039062 328.8125 -118.910156 340.511719 C -120.785156 352.675781 -120.316406 366.246094 -116.574219 380.28125 C -109.554688 411.164062 -90.371094 446.257812 -59.957031 484.160156 C -79.140625 505.683594 -96.453125 520.1875 -113.296875 529.546875 C -125.460938 536.566406 -137.160156 540.308594 -148.859375 541.710938 C -161.492188 543.117188 -173.65625 541.242188 -184.417969 537.03125 C -207.347656 527.675781 -223.722656 506.617188 -227 482.285156 C -228.402344 470.589844 -227.46875 458.890625 -222.789062 445.789062 C -221.382812 441.109375 -219.042969 436.433594 -216.707031 430.816406 C -213.429688 423.332031 -209.6875 415.375 -205.941406 407.421875 L -205.476562 406.484375 C -173.1875 336.765625 -138.5625 265.644531 -102.535156 196.394531 L -101.132812 193.585938 C -97.386719 186.566406 -93.644531 179.082031 -89.902344 172.0625 C -86.15625 164.574219 -81.945312 157.558594 -76.800781 151.472656 C -66.972656 140.246094 -53.871094 134.160156 -39.367188 134.160156 C -24.863281 134.160156 -11.761719 140.246094 -1.933594 151.472656 C 3.210938 157.558594 7.425781 164.574219 11.167969 172.0625 C 14.910156 179.082031 18.652344 186.566406 22.398438 193.585938 L 23.800781 196.394531 C 59.363281 266.113281 93.988281 337.234375 126.273438 406.953125 L 126.273438 407.421875 C 130.015625 414.90625 133.292969 423.332031 137.035156 430.816406 C 139.375 436.433594 141.714844 441.109375 143.117188 445.789062 C 146.859375 457.957031 148.265625 469.652344 146.394531 481.820312 Z M 146.394531 481.820312 " fill-opacity="1" fill-rule="nonzero"/></g><g clip-path="url(#2bfa643ce6)"><path fill="#ff5a5f" d="M 928.921875 220.726562 C 928.921875 237.570312 915.351562 251.140625 898.507812 251.140625 C 881.664062 251.140625 868.09375 237.570312 868.09375 220.726562 C 868.09375 203.878906 881.195312 190.3125 898.507812 190.3125 C 915.820312 190.777344 928.921875 204.347656 928.921875 220.726562 Z M 803.523438 282.019531 C 803.523438 284.828125 803.523438 289.507812 803.523438 289.507812 C 803.523438 289.507812 789.015625 270.792969 758.136719 270.792969 C 707.132812 270.792969 667.359375 309.628906 667.359375 363.4375 C 667.359375 416.78125 706.664062 456.082031 758.136719 456.082031 C 789.484375 456.082031 803.523438 436.898438 803.523438 436.898438 L 803.523438 444.855469 C 803.523438 448.597656 806.328125 451.40625 810.074219 451.40625 L 847.972656 451.40625 L 847.972656 275.46875 C 847.972656 275.46875 813.347656 275.46875 810.074219 275.46875 C 806.328125 275.46875 803.523438 278.746094 803.523438 282.019531 Z M 803.523438 394.789062 C 796.503906 405.082031 782.464844 413.972656 765.621094 413.972656 C 735.675781 413.972656 712.746094 395.253906 712.746094 363.4375 C 712.746094 331.621094 735.675781 312.902344 765.621094 312.902344 C 782 312.902344 796.972656 322.261719 803.523438 332.085938 Z M 876.046875 275.46875 L 920.96875 275.46875 L 920.96875 451.40625 L 876.046875 451.40625 Z M 1547.03125 270.792969 C 1516.148438 270.792969 1501.644531 289.507812 1501.644531 289.507812 L 1501.644531 190.777344 L 1456.726562 190.777344 L 1456.726562 451.40625 C 1456.726562 451.40625 1491.351562 451.40625 1494.625 451.40625 C 1498.371094 451.40625 1501.175781 448.128906 1501.175781 444.855469 L 1501.175781 436.898438 C 1501.175781 436.898438 1515.683594 456.082031 1546.5625 456.082031 C 1597.566406 456.082031 1637.339844 416.78125 1637.339844 363.4375 C 1637.339844 310.097656 1597.566406 270.792969 1547.03125 270.792969 Z M 1539.546875 413.503906 C 1522.234375 413.503906 1508.664062 404.613281 1501.644531 394.320312 L 1501.644531 331.621094 C 1508.664062 322.261719 1523.636719 312.433594 1539.546875 312.433594 C 1569.492188 312.433594 1592.417969 331.152344 1592.417969 362.96875 C 1592.417969 394.789062 1569.492188 413.503906 1539.546875 413.503906 Z M 1433.328125 347.0625 L 1433.328125 451.871094 L 1388.410156 451.871094 L 1388.410156 352.207031 C 1388.410156 323.199219 1379.050781 311.5 1353.785156 311.5 C 1340.214844 311.5 1326.179688 318.519531 1317.289062 328.8125 L 1317.289062 451.40625 L 1272.367188 451.40625 L 1272.367188 275.46875 L 1307.929688 275.46875 C 1311.671875 275.46875 1314.480469 278.746094 1314.480469 282.019531 L 1314.480469 289.507812 C 1327.582031 275.9375 1344.894531 270.792969 1362.207031 270.792969 C 1381.859375 270.792969 1398.238281 276.40625 1411.339844 287.636719 C 1427.246094 300.738281 1433.328125 317.582031 1433.328125 347.0625 Z M 1163.34375 270.792969 C 1132.464844 270.792969 1117.957031 289.507812 1117.957031 289.507812 L 1117.957031 190.777344 L 1073.039062 190.777344 L 1073.039062 451.40625 C 1073.039062 451.40625 1107.664062 451.40625 1110.941406 451.40625 C 1114.683594 451.40625 1117.492188 448.128906 1117.492188 444.855469 L 1117.492188 436.898438 C 1117.492188 436.898438 1131.996094 456.082031 1162.878906 456.082031 C 1213.878906 456.082031 1253.652344 416.78125 1253.652344 363.4375 C 1254.121094 310.097656 1214.347656 270.792969 1163.34375 270.792969 Z M 1155.859375 413.503906 C 1138.546875 413.503906 1124.976562 404.613281 1117.957031 394.320312 L 1117.957031 331.621094 C 1124.976562 322.261719 1139.949219 312.433594 1155.859375 312.433594 C 1185.804688 312.433594 1208.734375 331.152344 1208.734375 362.96875 C 1208.734375 394.789062 1185.804688 413.503906 1155.859375 413.503906 Z M 1034.203125 270.792969 C 1047.773438 270.792969 1054.789062 273.132812 1054.789062 273.132812 L 1054.789062 314.773438 C 1054.789062 314.773438 1017.359375 302.140625 993.960938 328.8125 L 993.960938 451.871094 L 949.042969 451.871094 L 949.042969 275.46875 C 949.042969 275.46875 983.667969 275.46875 986.941406 275.46875 C 990.6875 275.46875 993.492188 278.746094 993.492188 282.019531 L 993.492188 289.507812 C 1001.917969 279.683594 1020.164062 270.792969 1034.203125 270.792969 Z M 567.695312 435.496094 C 565.355469 429.882812 563.015625 423.796875 560.675781 418.652344 C 556.933594 410.230469 553.191406 402.273438 549.914062 394.789062 L 549.445312 394.320312 C 517.160156 324.132812 482.535156 253.011719 446.039062 182.824219 L 444.636719 180.015625 C 440.890625 173 437.148438 165.511719 433.40625 158.023438 C 428.726562 149.601562 424.046875 140.710938 416.5625 132.289062 C 401.585938 113.574219 380.0625 103.28125 357.136719 103.28125 C 333.742188 103.28125 312.683594 113.574219 297.242188 131.355469 C 290.226562 139.777344 285.078125 148.667969 280.398438 157.089844 C 276.65625 164.574219 272.914062 172.0625 269.167969 179.082031 L 267.765625 181.886719 C 231.734375 252.074219 196.644531 323.199219 164.355469 393.382812 L 163.890625 394.320312 C 160.613281 401.804688 156.871094 409.761719 153.128906 418.183594 C 150.789062 423.332031 148.449219 428.945312 146.109375 435.027344 C 140.027344 452.339844 138.152344 468.71875 140.492188 485.5625 C 145.640625 520.65625 169.035156 550.132812 201.320312 563.234375 C 213.488281 568.382812 226.121094 570.722656 239.222656 570.722656 C 242.964844 570.722656 247.644531 570.253906 251.386719 569.785156 C 266.828125 567.914062 282.738281 562.765625 298.179688 553.878906 C 317.363281 543.117188 335.613281 527.675781 356.199219 505.214844 C 376.789062 527.675781 395.503906 543.117188 414.222656 553.878906 C 429.664062 562.765625 445.570312 567.914062 461.011719 569.785156 C 464.753906 570.253906 469.433594 570.722656 473.179688 570.722656 C 486.28125 570.722656 499.378906 568.382812 511.078125 563.234375 C 543.832031 550.132812 566.761719 520.1875 571.90625 485.5625 C 575.648438 469.183594 573.777344 452.808594 567.695312 435.496094 Z M 356.667969 459.828125 C 331.402344 428.007812 315.023438 398.0625 309.410156 372.796875 C 307.070312 362.035156 306.601562 352.675781 308.003906 344.253906 C 308.941406 336.765625 311.75 330.214844 315.492188 324.601562 C 324.382812 311.96875 339.355469 304.011719 356.667969 304.011719 C 373.980469 304.011719 389.421875 311.5 397.84375 324.601562 C 401.585938 330.214844 404.394531 336.765625 405.332031 344.253906 C 406.734375 352.675781 406.265625 362.5 403.925781 372.796875 C 398.3125 397.59375 381.933594 427.542969 356.667969 459.828125 Z M 543.363281 481.820312 C 540.089844 506.148438 523.710938 527.207031 500.785156 536.566406 C 489.554688 541.242188 477.390625 542.648438 465.222656 541.242188 C 453.527344 539.839844 441.828125 536.097656 429.664062 529.078125 C 412.816406 519.71875 395.972656 505.214844 376.320312 483.691406 C 407.203125 445.789062 425.917969 411.164062 432.9375 380.28125 C 436.214844 365.777344 436.679688 352.675781 435.277344 340.511719 C 433.40625 328.8125 429.195312 318.050781 422.644531 308.691406 C 408.136719 287.636719 383.808594 275.46875 356.667969 275.46875 C 329.53125 275.46875 305.199219 288.105469 290.691406 308.691406 C 284.140625 318.050781 279.929688 328.8125 278.058594 340.511719 C 276.1875 352.675781 276.65625 366.246094 280.398438 380.28125 C 287.417969 411.164062 306.601562 446.257812 337.015625 484.160156 C 317.832031 505.683594 300.519531 520.1875 283.675781 529.546875 C 271.507812 536.566406 259.8125 540.308594 248.113281 541.710938 C 235.480469 543.117188 223.3125 541.242188 212.550781 537.03125 C 189.625 527.675781 173.246094 506.617188 169.972656 482.285156 C 168.566406 470.589844 169.503906 458.890625 174.183594 445.789062 C 175.585938 441.109375 177.925781 436.433594 180.265625 430.816406 C 183.542969 423.332031 187.285156 415.375 191.027344 407.421875 L 191.496094 406.484375 C 223.78125 336.765625 258.40625 265.644531 294.4375 196.394531 L 295.839844 193.585938 C 299.582031 186.566406 303.328125 179.082031 307.070312 172.0625 C 310.8125 164.574219 315.023438 157.558594 320.171875 151.472656 C 329.996094 140.246094 343.097656 134.160156 357.605469 134.160156 C 372.109375 134.160156 385.210938 140.246094 395.035156 151.472656 C 400.183594 157.558594 404.394531 164.574219 408.136719 172.0625 C 411.882812 179.082031 415.625 186.566406 419.367188 193.585938 L 420.773438 196.394531 C 456.332031 266.113281 490.957031 337.234375 523.246094 406.953125 L 523.246094 407.421875 C 526.988281 414.90625 530.261719 423.332031 534.007812 430.816406 C 536.347656 436.433594 538.683594 441.109375 540.089844 445.789062 C 543.832031 457.957031 545.234375 469.652344 543.363281 481.820312 Z M 543.363281 481.820312 " fill-opacity="1" fill-rule="nonzero"/></g><g clip-path="url(#dcbb6c7631)"><path fill="#ff5a60" d="M 93.296875 198.46875 C 78.019531 200.328125 45.429688 160.675781 49.550781 119.457031 C 53.671875 78.234375 87.339844 56.929688 96.503906 53.265625 C 79.328125 82.121094 80.011719 104.339844 92.609375 126.78125 C 105.203125 149.222656 131.542969 149.222656 128.109375 168.234375 C 124.675781 187.242188 110.242188 196.402344 93.296875 198.460938 Z M 93.296875 198.46875 " fill-opacity="1" fill-rule="nonzero"/></g><g clip-path="url(#4657655afc)"><path fill="#ff5a60" d="M 514.382812 198.46875 C 529.65625 200.328125 562.246094 160.675781 558.125 119.457031 C 554.003906 78.230469 520.332031 56.929688 511.171875 53.265625 C 528.351562 82.121094 527.664062 104.339844 515.066406 126.78125 C 502.472656 149.222656 476.132812 149.222656 479.566406 168.234375 C 483.003906 187.242188 497.433594 196.402344 514.382812 198.460938 Z M 514.382812 198.46875 " fill-opacity="1" fill-rule="nonzero"/></g></svg>